<?xml version="1.0" encoding="utf-8"?>
<!-- Generator: Adobe Illustrator 26.1.0, SVG Export Plug-In . SVG Version: 6.00 Build 0)  -->
<svg version="1.1" id="katman_1" xmlns="http://www.w3.org/2000/svg" xmlns:xlink="http://www.w3.org/1999/xlink" x="0px" y="0px"
     viewBox="0 0 28 28" style="enable-background:new 0 0 28 28;" xml:space="preserve">
<style type="text/css">
    .st0{fill:#F78F8F;}
    .st1{fill:#C74343;}
    .st2{fill:#A16A4A;}
    .st3{fill:#FFFFFF;}
</style>
<polygon class="st0" points="14,20.9 24,25.5 24,2 4,2 4,25.5 "/>
<path class="st1" d="M14,20.9L4,25.5V2h20l0,0v23.5L14,20.9z M25,1H3v26l11-5l11,5V1L25,1z"/>
<path class="st2" d="M19.5,4C14.7,4,11,7.7,11,12.5s3.7,8.5,8.5,8.5s8.5-3.7,8.5-8.5S24.3,4,19.5,4z"/>
<path class="st3" d="M15,12h9v1h-9V12z"/>
</svg>
