<?xml version="1.0" encoding="utf-8"?>
<!-- Generator: Adobe Illustrator 26.1.0, SVG Export Plug-In . SVG Version: 6.00 Build 0)  -->
<svg version="1.1" id="katman_1" xmlns="http://www.w3.org/2000/svg" xmlns:xlink="http://www.w3.org/1999/xlink" x="0px" y="0px"
     viewBox="0 0 24 24" style="enable-background:new 0 0 24 24;" xml:space="preserve">
<style type="text/css">
    .st0{fill:#F78F8F;}
    .st1{fill:#C74343;}
    .st2{fill:#A16A4A;}
    .st3{fill:#FFFFFF;}
</style>
<polygon class="st0" points="12,17.9 20,21.5 20,2 4,2 4,21.5 "/>
<path class="st1" d="M12,17.9l-8,3.6V2h16l0,0v19.5L12,17.9z M21,1H3v22l9-4l9,4V1L21,1z"/>
<path class="st2" d="M16.5,3C12.3,3,9,6.3,9,10.5s3.3,7.5,7.5,7.5s7.5-3.3,7.5-7.5S20.7,3,16.5,3z"/>
<path class="st3" d="M13,10h7v1h-7V10z"/>
</svg>
