<?xml version="1.0" encoding="utf-8"?>
<!--
    Google Noto Emoji Fonts: https://github.com/googlefonts/noto-emoji
    Copyright 2013 Google, Inc. All Rights Reserved.

    Licensed under the Apache License, Version 2.0 (the "License");
    you may not use this file except in compliance with the License.
    You may obtain a copy of the License at

        http://www.apache.org/licenses/LICENSE-2.0

    Unless required by applicable law or agreed to in writing, software
    distributed under the License is distributed on an "AS IS" BASIS,
    WITHOUT WARRANTIES OR CONDITIONS OF ANY KIND, either express or implied.
    See the License for the specific language governing permissions and
    limitations under the License.
-->
<!-- Generator: Adobe Illustrator 26.1.0, SVG Export Plug-In . SVG Version: 6.00 Build 0)  -->
<svg version="1.1" id="katman_1" xmlns="http://www.w3.org/2000/svg" xmlns:xlink="http://www.w3.org/1999/xlink" x="0px" y="0px"
     viewBox="0 0 128 128" style="enable-background:new 0 0 128 128;" xml:space="preserve">
<style type="text/css">
    .st0{fill:#DEA66C;}
    .st1{fill:#B38251;}
    .st2{fill:#966239;}
    .st3{opacity:0.5;fill:#212121;enable-background:new    ;}
    .st4{opacity:0.5;}
    .st5{fill:#212121;}
    .st6{fill:#FFE0B2;}
    .st7{fill:#BF9F85;}
</style>
<g>
    <path class="st0" d="M62.5,4.8L10.4,31.7c-1.1,0.7-1.5,1.7-1.5,3.1L9,36.7l55.1,28.2L119,37.1c0,0,0.1-0.3,0.1-1.3
        c0,0-0.1-1.3-0.3-1.9c-0.3-0.7-1-1.3-1.4-1.7c-1.2-1-2.3-1.8-4.3-3C84.4,13.2,65.7,4.9,65.7,4.9C64.5,4.5,63.5,4.3,62.5,4.8z"/>
    <path class="st1" d="M9.7,96.2c3,2,8.6,4.7,14.2,7.7c13,7.1,29.5,15.6,37.7,19c1.1,0.5,1.8,0.7,2.5,0.7c0.6,0,1.5-0.3,1.5-0.3
        S64.2,68,64.1,64.9c-0.1-3.1-1.4-4.1-2.5-4.8c-1.8-1.1-5.6-2.9-5.6-2.9s-13.5-6.7-27-13.8c-6.4-3.4-11.8-6.8-17.7-9.7
        c-1.1-0.5-2.3,0.1-2.3,1.3v59.8C8.9,95.4,9.3,95.8,9.7,96.2z"/>
    <path class="st2" d="M117.6,96.5l-51.8,26.7c-0.8,0.4-1.8-0.2-1.8-1.1l0.1-57.2c0-0.6-0.2-1.8-0.3-2.2c-0.5-1.4,0.5-2,1-2.2
        L116.1,34c1.4-0.7,3,0.3,3,1.8v58.2C119.1,95.1,118.5,96,117.6,96.5z"/>
    <path class="st3" d="M94.5,47.6c0,0-28.4,14.5-28.8,15.7c-0.5,1.2,22.3-9.7,24.9-11.1c3-1.5,26.7-14.2,26.7-15.6
        C117.2,35.5,94.5,47.6,94.5,47.6z"/>
    <g class="st4">
        <g>
            <g>
                <path class="st5" d="M12.8,92.8c3.7,1.9,7.3,3.8,11.9,6.1c0-0.7,0-1.1,0-1.8c-4.5-2.3-8.2-4.2-11.9-6.1
                    C12.8,91.8,12.8,92.1,12.8,92.8z"/>
            </g>
            <g>
                <path class="st5" d="M20.6,93.7c1,0.5,1.6,0.8,2.5,1.3c0-3.1,0-4.7,0-7.8c-1-0.5-1.5-0.8-2.5-1.3C20.6,89,20.6,90.6,20.6,93.7z"
                    />
            </g>
            <g>
                <path class="st5" d="M14.1,90.3c0.9,0.4,1.3,0.7,2.3,1.2c0-3.1,0-4.6,0-7.7c-1-0.5-1.5-0.8-2.3-1.2
                    C14.1,85.7,14.1,87.2,14.1,90.3z"/>
            </g>
            <g>
                <path class="st5" d="M19,86c2.4,1.2,3.6,1.9,5.7,2.9c-1-1.9-1.6-2.8-2.8-4.8C20.8,84.9,20.1,85.2,19,86z"/>
            </g>
            <g>
                <path class="st5" d="M12.8,82.8c1.8,0.9,3,1.5,5.3,2.7c-1.2-1.9-1.7-2.9-2.8-4.8C14.2,81.5,13.7,81.9,12.8,82.8z"/>
            </g>
        </g>
    </g>
    <g class="st4">
        <g>
            <g>
                <path class="st5" d="M31.8,101.4c0.8,0.4,1.3,0.7,2.1,1.1c-0.1-3.7-0.1-5.5-0.2-9.2c-0.8-0.4-1.2-0.6-2-1
                    C31.8,95.9,31.8,97.7,31.8,101.4z"/>
            </g>
            <g>
                <path class="st5" d="M28.8,100.8c3,1.6,5.4,2.8,8.3,4.4l0,0c0-1.1-0.8-2.3-1.9-2.9c-1.7-0.9-2.7-1.4-4.4-2.3
                    C29.6,99.3,28.8,99.7,28.8,100.8L28.8,100.8z"/>
            </g>
            <g>
                <path class="st5" d="M34.5,90.4c0.5,1.1,0.8,1.6,1.3,2.7c-0.4,0.8-0.6,1.3-1,2.1c0.4,0,0.5,0,0.9-0.1c0.5-0.6,0.7-1,1.2-1.6
                    c-0.4-1-0.6-1.5-1.1-2.5c1.2,0.7,1.8,1,2.9,1.7c0,3.6-2.3,5.2-5.9,3.3c-3.5-1.8-5.9-5.9-5.9-9.5C29.6,87.8,31.4,88.7,34.5,90.4z
                    "/>
            </g>
        </g>
    </g>
    <path class="st6" d="M100.7,41.5c-0.5-0.4-54.2-28.4-54.2-28.4l-16.7,8.6l55.1,28.4l0,0l16.1-8.2c0,0,0-0.1-0.1-0.2
        C100.9,41.6,100.8,41.5,100.7,41.5z"/>
    <path class="st7" d="M101,41.7c-9.1,4.5-16.1,8.3-16.1,8.3c0.2,0.2,0.2,0.5,0.2,0.7c0,1.2-0.1,2.1-0.1,3.2
        c-0.1,6-0.2,11.9-0.4,17.9c0.7-0.4,1.5,0.5,2.1,0c0.9-0.7,2.9-4,3.2-4.1c0.4-0.1,0.8,0,1.2-0.1c1.8-0.1,5.8-3.8,6.7-3.9
        c0.8-0.2,3.6,0.4,3.6,0.4s-0.2-18.2-0.3-21.2C101.2,41.8,101,41.7,101,41.7z"/>
</g>
</svg>
